# xmcd
#
# Track frame offsets:
#	150
#	19051
#	33943
#	52376
#	68348
#	86225
#	102818
#	116408
#	135545
#	151622
#	170072
#
# Disc length: 2474 seconds
#
# Revision: 0
# Processed by: cddbd v1.5.2PL0 Copyright (c) Steve Scherf et al.
# Submitted via: EasyCDDAExtractor 9.1.3.1
#
DISCID=8709a80b
DTITLE=Juice Newton - Quiet Lies
DYEAR=1982
DGENRE=Country
TTITLE0=Heart Of The Night
TTITLE1=Love's Been A Little Bit Hard On Me
TTITLE2=Break It To Me Gently
TTITLE3=Love Sail Away
TTITLE4=I'm Dancing As Fast As I Can
TTITLE5=I'm Gonna Be Strong
TTITLE6=Trail Of Tears
TTITLE7=Adios Mi Corazon
TTITLE8=Falling In Love
TTITLE9=Ever True
TTITLE10=It's A Heartache
EXTD=
EXTT0=
EXTT1=
EXTT2=
EXTT3=
EXTT4=
EXTT5=
EXTT6=
EXTT7=
EXTT8=
EXTT9=
EXTT10=
PLAYORDER=
